Coordinates
version=1
nRows=18
nColumns=63
inDegrees=yes

Units are S.I. units (second, meters, Newtons, ...)
If the header above contains a line with 'inDegrees', this indicates whether rotational values are in degrees (yes) or radians (no).

endheader
time	pelvis_tilt	pelvis_list	pelvis_rotation	pelvis_tx	pelvis_ty	pelvis_tz	hip_flexion_r	hip_adduction_r	hip_rotation_r	knee_angle_r	knee_angle_r_beta	ankle_angle_r	subtalar_angle_r	mtp_angle_r	hip_flexion_l	hip_adduction_l	hip_rotation_l	knee_angle_l	knee_angle_l_beta	ankle_angle_l	subtalar_angle_l	mtp_angle_l	L5_S1_Flex_Ext	L5_S1_Lat_Bending	L5_S1_axial_rotation	L4_L5_Flex_Ext	L4_L5_Lat_Bending	L4_L5_axial_rotation	L3_L4_Flex_Ext	L3_L4_Lat_Bending	L3_L4_axial_rotation	L2_L3_Flex_Ext	L2_L3_Lat_Bending	L2_L3_axial_rotation	L1_L2_Flex_Ext	L1_L2_Lat_Bending	L1_L2_axial_rotation	L1_T12_Flex_Ext	L1_T12_Lat_Bending	L1_T12_axial_rotation	Abs_r3	Abs_r2	Abs_r1	Abs_t1	Abs_t2	neck_flexion	neck_bending	neck_rotation	arm_flex_r	arm_add_r	arm_rot_r	elbow_flex_r	pro_sup_r	wrist_flex_r	wrist_dev_r	arm_flex_l	arm_add_l	arm_rot_l	elbow_flex_l	pro_sup_l	wrist_flex_l	wrist_dev_l
3.915254	2.832301	-6.327876	94.783957	0.306617	0.945050	0.638516	-5.269438	5.076646	9.063781	1.676865	0.029267	22.233013	0.522128	0.000000	-5.065269	-7.498163	9.328242	1.513865	0.026422	18.098005	-12.394370	0.000000	-0.271988	0.447260	0.452422	-0.505108	0.594856	0.480699	-0.446848	1.087468	0.480699	-0.310855	1.087468	0.395869	-0.252568	0.912053	0.367593	-0.155414	0.692806	0.339317	-1.942780	5.059496	2.516237	0.000000	0.000000	11.908793	1.073306	5.745115	15.395920	-19.977179	76.618826	2.771534	1.196602	-4.420684	-16.218066	15.973166	-11.743123	110.574127	4.919542	29.840709	-8.209481	-4.467239
3.932203	2.815022	-6.310748	94.798078	0.306402	0.946034	0.639692	-5.172705	5.035313	8.353756	1.796020	0.031346	22.182109	1.579218	0.000000	-4.917258	-7.440409	9.071089	1.772138	0.030930	17.691831	-12.289143	0.000000	-0.262461	0.443071	0.381059	-0.487417	0.589285	0.404875	-0.431198	1.077283	0.404875	-0.299967	1.077283	0.333427	-0.243721	0.903511	0.309611	-0.149970	0.686317	0.285794	-1.874734	5.012109	2.119337	0.000000	0.000000	11.561069	1.030962	4.953850	16.426787	-20.124529	76.295647	2.545163	1.100031	-3.319093	-17.122474	16.329574	-12.065608	105.794589	4.736035	23.868850	-5.773365	-5.933806
3.949153	2.794783	-6.250846	94.794495	0.306184	0.947048	0.640706	-5.148206	4.993713	7.754296	1.883531	0.032874	22.104228	2.494239	0.000000	-4.824068	-7.380972	8.824152	2.029399	0.035420	17.352492	-12.172084	0.000000	-0.253502	0.441343	0.325903	-0.470778	0.586987	0.346272	-0.416478	1.073082	0.346272	-0.289727	1.073082	0.285165	-0.235402	0.899987	0.264796	-0.144851	0.683641	0.244427	-1.810739	4.992563	1.812576	0.000000	0.000000	11.087440	0.988873	4.297293	17.404257	-20.159697	76.662700	2.267399	1.023867	-2.490295	-17.933043	16.737932	-12.223899	102.324526	4.511565	17.949156	-2.678903	-7.259553
3.966102	2.665502	-6.114793	94.803560	0.306189	0.948358	0.641763	-5.213730	4.862255	7.097663	1.960543	0.034218	22.001081	3.391050	0.000000	-4.791523	-7.232900	8.445850	2.302301	0.040183	17.035328	-11.772520	0.000000	-0.249118	0.423285	0.217732	-0.462638	0.562969	0.231340	-0.409277	1.029174	0.231340	-0.284717	1.029174	0.190515	-0.231331	0.863162	0.176907	-0.142346	0.655668	0.163299	-1.779428	4.788281	1.210959	0.000000	0.000000	10.283231	1.145249	3.933997	19.571360	-19.905963	84.403980	-0.677765	-3.815353	-1.574313	-20.108027	17.090731	-12.420952	100.060691	4.264969	12.087850	0.566659	-8.711961
3.983051	2.596301	-5.982368	94.782640	0.306051	0.949466	0.642594	-5.309610	4.780954	6.610887	1.999813	0.034903	21.883154	4.090359	0.000000	-4.792160	-7.137475	8.116579	2.525724	0.044082	16.864102	-11.417360	0.000000	-0.241422	0.419223	0.166088	-0.448344	0.557567	0.176468	-0.396632	1.019300	0.176468	-0.275921	1.019300	0.145327	-0.224184	0.854880	0.134946	-0.137948	0.649377	0.124566	-1.724451	4.742338	0.923729	0.000000	0.000000	9.551544	1.137194	3.563028	21.017585	-19.600036	89.202760	-2.237654	-5.963950	-1.209819	-21.203398	17.516932	-12.353823	99.232289	4.007821	7.220447	3.336132	-10.139007
4.000000	2.556918	-5.867451	94.761096	0.305809	0.950347	0.643227	-5.427814	4.726541	6.401761	1.981828	0.034589	21.744431	4.422710	0.000000	-4.806939	-7.069140	7.886195	2.689408	0.046939	16.812428	-11.144786	0.000000	-0.230186	0.423569	0.156293	-0.427478	0.563347	0.166061	-0.378172	1.029865	0.166061	-0.263079	1.029865	0.136757	-0.213751	0.863742	0.126988	-0.131528	0.656108	0.117220	-1.644195	4.791496	0.869256	0.000000	0.000000	8.911764	0.990570	3.131985	21.819919	-19.207721	91.267051	-2.552431	-5.748847	-1.272772	-21.288879	18.020287	-12.065697	100.859618	3.745189	2.931733	5.007852	-11.382028
4.016949	2.546050	-5.781220	94.719581	0.305532	0.951001	0.643740	-5.531545	4.696080	6.237084	1.941519	0.033886	21.670406	4.729304	0.000000	-4.826100	-7.027781	7.667825	2.787135	0.048645	16.906396	-10.849463	0.000000	-0.216513	0.433987	0.183732	-0.402086	0.577203	0.195216	-0.355709	1.055196	0.195216	-0.247453	1.055196	0.160766	-0.201054	0.884986	0.149283	-0.123716	0.672246	0.137799	-1.546531	4.909348	1.021865	0.000000	0.000000	8.398236	0.714064	2.577739	22.038634	-18.731127	90.533935	-1.671078	-3.439222	-1.570675	-20.532036	18.545230	-11.629823	103.546559	3.434949	1.052755	5.306494	-12.224938
4.033898	2.552527	-5.730741	94.653587	0.305254	0.951448	0.644191	-5.603753	4.679354	6.177831	1.884745	0.032895	21.656327	4.941953	0.000000	-4.842717	-7.003100	7.466915	2.813231	0.049100	17.107663	-10.551421	0.000000	-0.200700	0.447974	0.243130	-0.372720	0.595805	0.258326	-0.329730	1.089203	0.258326	-0.229380	1.089203	0.212739	-0.186370	0.913508	0.197543	-0.114680	0.693911	0.182347	-1.433580	5.067568	1.352216	0.000000	0.000000	8.009497	0.327224	1.864318	21.720522	-18.182080	87.215955	0.332647	0.660439	-2.001023	-19.011012	19.104310	-11.039727	107.888674	3.066523	0.987015	4.184767	-12.493692
4.050847	2.573807	-5.723006	94.545530	0.304995	0.951708	0.644643	-5.617312	4.670614	6.155261	1.837643	0.032073	21.723693	5.170279	0.000000	-4.851144	-6.990752	7.252371	2.766559	0.048286	17.389551	-10.241261	0.000000	-0.183344	0.464522	0.330970	-0.340489	0.617815	0.351656	-0.301216	1.129439	0.351656	-0.209544	1.129439	0.289599	-0.170254	0.947254	0.268913	-0.104763	0.719545	0.248228	-1.309610	5.254768	1.840758	0.000000	0.000000	7.755591	-0.137986	1.005668	20.926523	-17.575666	81.688242	3.334667	6.276282	-2.492774	-16.846591	19.657143	-10.317167	113.313881	2.640792	2.317798	1.753024	-12.461240
4.067797	2.608955	-5.761056	94.367979	0.304773	0.951810	0.645157	-5.552600	4.665603	6.136746	1.821476	0.031791	21.881173	5.480373	0.000000	-4.850408	-6.987090	7.022609	2.649211	0.046237	17.711783	-9.958857	0.000000	-0.165257	0.483444	0.446575	-0.306899	0.642980	0.474486	-0.271501	1.175445	0.474486	-0.188872	1.175445	0.390753	-0.153458	0.985839	0.362842	-0.094428	0.748854	0.334931	-1.180414	5.468813	2.483715	0.000000	0.000000	7.631018	-0.664323	0.038246	19.740724	-16.935721	74.398376	7.173065	13.136303	-3.023960	-14.166860	20.161471	-9.467257	119.157725	2.193314	4.226033	-1.654613	-12.439096
4.084746	2.656325	-5.844652	94.107716	0.304597	0.951779	0.645788	-5.397585	4.662114	6.126449	1.852583	0.032334	22.116860	5.867805	0.000000	-4.837459	-6.988110	6.769590	2.469527	0.043101	18.047123	-9.720639	0.000000	-0.147376	0.504181	0.590440	-0.273693	0.670560	0.627342	-0.242125	1.225865	0.627342	-0.168436	1.225865	0.516635	-0.136854	1.028125	0.479732	-0.084211	0.780976	0.442830	-1.052694	5.703391	3.283848	0.000000	0.000000	7.627852	-1.238426	-1.022791	18.249955	-16.281633	65.767029	11.666762	20.998600	-3.556751	-11.082307	20.614707	-8.488327	125.020762	1.793940	6.106647	-5.638452	-12.477597
4.101695	2.702837	-5.976129	93.768055	0.304470	0.951628	0.646567	-5.142362	4.647886	6.062654	1.945591	0.033957	22.433796	6.402355	0.000000	-4.802922	-6.980986	6.523986	2.238968	0.039077	18.355899	-9.569679	0.000000	-0.129992	0.524775	0.759665	-0.241409	0.697951	0.807145	-0.213564	1.275938	0.807145	-0.148568	1.275938	0.664707	-0.120711	1.070121	0.617228	-0.074278	0.812877	0.569749	-0.928522	5.936360	4.225031	0.000000	0.000000	7.738321	-1.834033	-2.141225	16.545674	-15.614881	56.340351	16.582188	29.584363	-4.159363	-7.760908	21.053251	-7.366455	131.413908	1.388596	6.979907	-9.647711	-12.601191
4.118644	2.742557	-6.156235	93.353806	0.304420	0.951349	0.647543	-4.779890	4.620270	5.998592	2.115778	0.036927	22.817233	6.982322	0.000000	-4.734169	-6.960817	6.256292	1.980193	0.034561	18.643566	-9.458191	0.000000	-0.113708	0.543029	0.955497	-0.211168	0.722229	1.015215	-0.186811	1.320322	1.015215	-0.129957	1.320322	0.836060	-0.105590	1.107345	0.776341	-0.064973	0.841152	0.716623	-0.812207	6.142857	5.314186	0.000000	0.000000	7.975556	-2.430176	-3.374132	14.690389	-14.956048	46.435892	21.770915	38.713770	-4.783320	-4.368183	21.507062	-6.138129	137.674810	1.045263	7.634064	-13.758945	-12.847063
4.135593	2.750035	-6.386201	92.843955	0.304508	0.950947	0.648712	-4.293824	4.556965	5.935200	2.399738	0.041883	23.255197	7.603770	0.000000	-4.622602	-6.901583	5.933059	1.713524	0.029907	18.892374	-9.396187	0.000000	-0.098081	0.554891	1.176867	-0.182146	0.738004	1.250421	-0.161137	1.349161	1.250421	-0.112097	1.349161	1.029759	-0.091078	1.131533	0.956205	-0.056043	0.859525	0.882650	-0.700583	6.277033	6.545382	0.000000	0.000000	8.312795	-3.008398	-4.697420	12.769510	-14.281179	36.460929	27.024039	48.204978	-5.494886	-1.094404	21.977523	-4.845160	143.674380	0.775355	8.112740	-17.914755	-13.275533
4.152542	2.722862	-6.662273	92.253199	0.304756	0.950441	0.650066	-3.691289	4.458723	5.815672	2.795892	0.048798	23.733812	8.344628	0.000000	-4.460268	-6.805219	5.511433	1.456281	0.025417	19.129017	-9.307646	0.000000	-0.084156	0.559492	1.416278	-0.156286	0.744125	1.504795	-0.138260	1.360350	1.504795	-0.096182	1.360350	1.239243	-0.078147	1.140917	1.150725	-0.048087	0.866654	1.062208	-0.601117	6.329091	7.876911	0.000000	0.000000	8.760967	-3.551223	-6.051097	10.866306	-13.577098	26.875194	32.171702	57.701921	-6.379262	1.924834	22.456048	-3.508707	149.552881	0.563222	8.395728	-22.327688	-13.882606
4.169492	2.662753	-6.974254	91.593667	0.305138	0.949883	0.651615	-2.969574	4.323976	5.448955	3.338377	0.058266	24.275675	9.436317	0.000000	-4.241793	-6.675269	4.955597	1.232869	0.021518	19.382933	-9.124246	0.000000	-0.072810	0.556941	1.673510	-0.135215	0.740732	1.778105	-0.119619	1.354146	1.778105	-0.083214	1.354146	1.464322	-0.067611	1.135714	1.359727	-0.041603	0.862702	1.255133	-0.520073	6.300228	9.307563	0.000000	0.000000	9.309821	-4.053207	-7.444723	9.035966	-12.858731	17.919502	37.071338	66.809181	-7.368095	4.486211	22.958155	-2.121396	155.121127	0.384642	8.462422	-26.609629	-14.624875
4.186441	2.561792	-7.299829	90.889899	0.305652	0.949307	0.653291	-2.173286	4.153113	4.996583	3.996275	0.069748	24.822794	10.638890	0.000000	-3.990437	-6.505944	4.367526	1.039337	0.018140	19.620412	-8.971357	0.000000	-0.065317	0.545430	1.939989	-0.121300	0.725422	2.061239	-0.107310	1.326159	2.061239	-0.074651	1.326159	1.697491	-0.060653	1.112241	1.576241	-0.037322	0.844871	1.454992	-0.466554	6.170015	10.789639	0.000000	0.000000	9.931161	-4.472697	-8.845344	7.359745	-12.129694	9.961801	41.549542	74.933987	-8.268496	6.446245	23.468549	-0.726581	159.586335	0.261435	8.390591	-29.945557	-15.418489
4.203390	2.426534	-7.631947	90.161891	0.306288	0.948723	0.655088	-1.315322	3.954018	4.473183	4.761463	0.083103	25.389154	11.906812	0.000000	-3.707481	-6.305577	3.808711	0.877574	0.015317	19.831637	-8.907106	0.000000	-0.061711	0.525896	2.205170	-0.114603	0.699441	2.342993	-0.101385	1.278663	2.342993	-0.070529	1.278663	1.929523	-0.057305	1.072406	1.791700	-0.035262	0.814612	1.653877	-0.440794	5.949036	12.264491	0.000000	0.000000	10.632752	-4.787325	-10.173970	5.937216	-11.388675	3.312225	45.446617	81.641582	-9.073240	7.740110	23.958790	0.641826	162.412731	0.217829	8.188276	-31.867887	-16.241062
